<svg xmlns="http://www.w3.org/2000/svg" viewBox="0 0 170.42 32"><defs><style>.cls-1{fill:none;}.cls-2{fill:#a9b2bc;}</style></defs><g id="Layer_2" data-name="Layer 2"><g id="Layer_1-2" data-name="Layer 1"><path class="cls-1" d="M16,32A16,16,0,1,1,32,16,16,16,0,0,1,16,32ZM16,1A15,15,0,1,0,31,16,15,15,0,0,0,16,1Z"/><path class="cls-2" d="M20.27,7.45A6.47,6.47,0,0,0,16,8.88a6.52,6.52,0,0,0-4.25-1.43,6.07,6.07,0,0,0-6.24,6.13,6.13,6.13,0,0,0,.26,1.75l1-.29a4.83,4.83,0,0,1-.22-1.46,5.08,5.08,0,0,1,5.24-5.13,5.2,5.2,0,0,1,3.87,1.44l.37.43.38-.43a5.27,5.27,0,0,1,3.88-1.44,5.08,5.08,0,0,1,5.23,5.13c0,2.65-2,4.46-3.44,5.78-.27.25-.52.48-.73.69L16,25.34,11,20.3l-.71.71c2.85,2.85,5.41,5.39,5.41,5.39l.36.35.35-.35s2.81-2.79,5.66-5.64c.2-.2.44-.42.7-.66,1.5-1.36,3.77-3.43,3.77-6.52A6.06,6.06,0,0,0,20.27,7.45Z"/><polygon class="cls-2" points="14.65 14.17 17.35 21.23 19.61 16.4 21.62 16.4 21.62 15.4 18.98 15.4 17.44 18.67 14.62 11.26 12.56 17.12 6 17.12 6 18.12 13.27 18.12 14.65 14.17"/><path class="cls-2" d="M57.42,11.45v1.64a2.59,2.59,0,0,1,1.11-1.36,3.44,3.44,0,0,1,1.79-.47V14a2.8,2.8,0,0,0-2,.46,2.18,2.18,0,0,0-.88,2V21H55V11.45Z"/><path class="cls-2" d="M65.55,21.27a5,5,0,0,1-5-5,4.94,4.94,0,0,1,5-5,5,5,0,0,1,2.54.66,4.43,4.43,0,0,1,1.74,1.8l-2.12,1.24a2.13,2.13,0,0,0-.87-.94,2.67,2.67,0,0,0-3.14.39A2.6,2.6,0,0,0,63,16.23a2.64,2.64,0,0,0,.72,1.87,2.51,2.51,0,0,0,1.83.72,2.65,2.65,0,0,0,1.33-.33,2.06,2.06,0,0,0,.87-.93l2.14,1.22a4.67,4.67,0,0,1-1.79,1.82A5,5,0,0,1,65.55,21.27Z"/><path class="cls-2" d="M53.75,16.25a5.05,5.05,0,0,0-2.47-4.38,5,5,0,0,0-2.61-.68,5,5,0,0,0-5.06,5.06A5.08,5.08,0,0,0,45,19.8a4.35,4.35,0,0,0,3.28,1.46,3.69,3.69,0,0,0,3.08-1.38V21h2.44Zm-2.44,0a2.6,2.6,0,0,1-.74,1.92,2.55,2.55,0,0,1-1.88.76,2.57,2.57,0,0,1-2.64-2.68,2.7,2.7,0,0,1,.74-1.92,2.73,2.73,0,0,1,3.76,0A2.64,2.64,0,0,1,51.31,16.25Z"/><path class="cls-2" d="M74.7,24.9V22.62a2.49,2.49,0,0,0,1.62-.44,1.91,1.91,0,0,0,.87-1.38v-.93a3.12,3.12,0,0,1-2.83,1.33,3.38,3.38,0,0,1-2.56-1,4,4,0,0,1-1-2.88V11.45h2.45V17a1.94,1.94,0,0,0,.5,1.44,1.83,1.83,0,0,0,1.37.52,2,2,0,0,0,1.53-.6,2.51,2.51,0,0,0,.56-1.76V11.45h2.45v9.09a4.36,4.36,0,0,1-4.36,4.36Z"/><path class="cls-2" d="M95.9,15.43v5.86H93.45V15.74a1.77,1.77,0,0,0-1.89-2c-1.2,0-2.1.7-2.1,2.36v5.15H87V7.94h2.46v4.88a3.25,3.25,0,0,1,2.84-1.33C94.32,11.49,95.9,12.9,95.9,15.43Z"/><path class="cls-2" d="M102.29,19.32a2.66,2.66,0,0,0,2.14-.95l2,1.14a4.83,4.83,0,0,1-4.16,2,4.9,4.9,0,0,1-5.22-5,4.93,4.93,0,1,1,9.85,0,5.42,5.42,0,0,1-.09,1H99.6A2.51,2.51,0,0,0,102.29,19.32Zm2.14-3.7a2.32,2.32,0,0,0-2.37-1.92,2.37,2.37,0,0,0-2.49,1.92Z"/><path class="cls-2" d="M117.75,11.76v9.53h-2.46V20.16a3.77,3.77,0,0,1-3.1,1.39,4.82,4.82,0,0,1-4.64-5,4.82,4.82,0,0,1,4.64-5,3.77,3.77,0,0,1,3.1,1.39V11.76Zm-2.46,4.76a2.64,2.64,0,1,0-5.28,0,2.64,2.64,0,1,0,5.28,0Z"/><path class="cls-2" d="M124.86,11.57v2.74A2.38,2.38,0,0,0,122,16.73v4.56h-2.46V11.76H122V13.4A2.91,2.91,0,0,1,124.86,11.57Z"/><path class="cls-2" d="M129.38,14.12v4c0,1,.74,1.05,2.15,1v2.23c-3.45.38-4.61-.63-4.61-3.21v-4h-1.66V11.76h1.66V9.83l2.46-.74v2.67h2.15v2.36Z"/><path class="cls-2" d="M142.59,11.57v2.74a2.38,2.38,0,0,0-2.9,2.42v4.56h-2.45V11.76h2.45V13.4A2.94,2.94,0,0,1,142.59,11.57Z"/><path class="cls-2" d="M152.88,11.76v9.53h-2.45V20.16a3.8,3.8,0,0,1-3.11,1.39,4.81,4.81,0,0,1-4.63-5,4.81,4.81,0,0,1,4.63-5,3.8,3.8,0,0,1,3.11,1.39V11.76Zm-2.45,4.76a2.64,2.64,0,1,0-5.28,0,2.64,2.64,0,1,0,5.28,0Z"/><path class="cls-2" d="M157.94,14.12v4c0,1,.74,1.05,2.15,1v2.23c-3.45.38-4.61-.63-4.61-3.21v-4h-1.66V11.76h1.66V9.83l2.46-.74v2.67h2.15v2.36Z"/><path class="cls-2" d="M165.83,19.32a2.64,2.64,0,0,0,2.13-.95l2,1.14a4.83,4.83,0,0,1-4.16,2,4.9,4.9,0,0,1-5.22-5,4.93,4.93,0,1,1,9.85,0,6.43,6.43,0,0,1-.09,1h-7.19A2.5,2.5,0,0,0,165.83,19.32Zm2.13-3.7a2.3,2.3,0,0,0-2.36-1.92,2.39,2.39,0,0,0-2.5,1.92Z"/><path class="cls-2" d="M40.41,16.3a2.57,2.57,0,0,1-.75,1.9,2.69,2.69,0,0,1-3.73,0,2.67,2.67,0,0,1-.73-1.9,2.55,2.55,0,0,1,2.62-2.65h2.59V11.33h-3a4.34,4.34,0,0,0-3.26,1.45,5,5,0,0,0-1.33,3.52,4.94,4.94,0,0,0,5,5,5,5,0,0,0,2.59-.67,5.13,5.13,0,0,0,2.45-4.35V8.24H40.41Z"/></g></g></svg>