<svg id="D-icon-app-wearable" xmlns="http://www.w3.org/2000/svg" width="62" height="62" viewBox="0 0 62 62">
  <path id="noun-heart-rate-2187681" d="M124.067,113.973a1.362,1.362,0,0,1-.967-.395l-8.418-8.418a1.363,1.363,0,1,1,1.921-1.934l7.464,7.464,11.6-11.6a7.532,7.532,0,1,0-10.638-10.651,1.362,1.362,0,0,1-1.934,0,7.532,7.532,0,0,0-12.558,7.4,1.362,1.362,0,0,1-2.615.735,10.243,10.243,0,0,1,16.141-10.9,10.243,10.243,0,0,1,13.539,15.337l-12.572,12.572a1.362,1.362,0,0,1-.967.395ZM126.7,104.7l2.384-5.952h3.16a1.362,1.362,0,1,0,0-2.724h-4.086a1.362,1.362,0,0,0-1.267.858l-1.362,3.351-2.82-8.731a1.362,1.362,0,0,0-2.588,0l-2.479,7.246H106.36a1.362,1.362,0,1,0,0,2.724h12.259a1.362,1.362,0,0,0,1.294-.926l1.43-4.3,2.792,8.39a1.365,1.365,0,0,0,2.561.068Z" transform="translate(-91.945 -67.131)" fill="#fff"/>
  <g id="Ellipse_7" data-name="Ellipse 7">
    <circle cx="31" cy="31" r="30" stroke-width="2" fill="none" stroke="#fff"/>
  </g>
</svg>
