<svg id="icn-min-heart-rate" xmlns="http://www.w3.org/2000/svg" width="44" height="44" viewBox="0 0 44 44">
  <path id="Path_702" data-name="Path 702" d="M23.613-20.124a.674.674,0,0,0-.209-.49.682.682,0,0,0-.5-.21.673.673,0,0,0-.5.21.679.679,0,0,0-.206.49v9.874l.06,4.061-3.7-3.758L17.151-11.4a.657.657,0,0,0-.224-.148.725.725,0,0,0-.288-.061.652.652,0,0,0-.474.2.672.672,0,0,0-.2.5.6.6,0,0,0,.12.4,2.826,2.826,0,0,0,.284.285l6.005,5.91a.9.9,0,0,0,.262.181.663.663,0,0,0,.265.058.657.657,0,0,0,.268-.058.914.914,0,0,0,.259-.181l6.005-5.91q.15-.144.276-.285a.58.58,0,0,0,.127-.4.672.672,0,0,0-.2-.5.652.652,0,0,0-.474-.2.718.718,0,0,0-.29.061.662.662,0,0,0-.221.148L27.246-9.946,23.533-6.189l.08-4.061Zm-19.256.495a15.373,15.373,0,0,0,2.254,7.815A33.3,33.3,0,0,0,12.844-4.26a71.131,71.131,0,0,0,9.147,7.1,2.06,2.06,0,0,0,.451.234,1.311,1.311,0,0,0,.46.1,1.267,1.267,0,0,0,.458-.1,2.114,2.114,0,0,0,.444-.234,70.515,70.515,0,0,0,9.159-7.1,33.325,33.325,0,0,0,6.23-7.554,15.373,15.373,0,0,0,2.254-7.815,12.12,12.12,0,0,0-.773-4.4A10.44,10.44,0,0,0,38.5-27.5a9.747,9.747,0,0,0-3.275-2.271,10.349,10.349,0,0,0-4.107-.8,9.215,9.215,0,0,0-4.811,1.347,8.848,8.848,0,0,0-3.41,3.6,8.917,8.917,0,0,0-3.415-3.6,9.192,9.192,0,0,0-4.807-1.347,10.335,10.335,0,0,0-4.1.8A9.776,9.776,0,0,0,7.3-27.5,10.417,10.417,0,0,0,5.13-24.031,12.12,12.12,0,0,0,4.357-19.629Zm1.445,0a10.338,10.338,0,0,1,1.146-4.952A8.534,8.534,0,0,1,10.1-27.934a8.667,8.667,0,0,1,4.57-1.211,7.479,7.479,0,0,1,3.2.661,8.4,8.4,0,0,1,2.483,1.751,10.687,10.687,0,0,1,1.775,2.406,1.875,1.875,0,0,0,.382.479.617.617,0,0,0,.394.134.6.6,0,0,0,.391-.137,1.865,1.865,0,0,0,.37-.477,11.408,11.408,0,0,1,1.8-2.4,8.448,8.448,0,0,1,2.478-1.754,7.425,7.425,0,0,1,3.19-.661A8.63,8.63,0,0,1,35.7-27.934a8.6,8.6,0,0,1,3.152,3.353A10.286,10.286,0,0,1,40-19.629a12.92,12.92,0,0,1-1.316,5.548,24.723,24.723,0,0,1-3.637,5.5,45.893,45.893,0,0,1-5.368,5.27A72.386,72.386,0,0,1,23.17,1.55a.607.607,0,0,1-.269.135.579.579,0,0,1-.263-.135,72.345,72.345,0,0,1-6.51-4.859,46.084,46.084,0,0,1-5.371-5.27,24.668,24.668,0,0,1-3.64-5.5A12.922,12.922,0,0,1,5.8-19.629Z" transform="translate(-1 36)" fill="#fff"/>
  <rect id="Rectangle_89" data-name="Rectangle 89" width="44" height="44" fill="none"/>
</svg>
